<svg width="20" height="20" viewBox="0 0 20 20" fill="none" xmlns="http://www.w3.org/2000/svg">
<path d="M9.5 5H5.22222C4.89807 5 4.58719 5.12877 4.35798 5.35798C4.12877 5.58719 4 5.89807 4 6.22222V14.7778C4 15.1019 4.12877 15.4128 4.35798 15.642C4.58719 15.8712 4.89807 16 5.22222 16H13.7778C14.1019 16 14.4128 15.8712 14.642 15.642C14.8712 15.4128 15 15.1019 15 14.7778V10.5" stroke="#A69E9E" stroke-linecap="round" stroke-linejoin="round"/>
<path d="M13.692 4.35199C13.9456 4.12661 14.2894 4 14.648 4C15.0066 4 15.3505 4.12661 15.604 4.35199C15.8576 4.57737 16 4.88304 16 5.20177C16 5.5205 15.8576 5.82617 15.604 6.05155L9.54934 11.4335L7 12L7.63733 9.73392L13.692 4.35199Z" stroke="#A69E9E" stroke-linecap="round" stroke-linejoin="round"/>
</svg>
