<svg width="21" height="21" viewBox="0 0 21 21" fill="none" xmlns="http://www.w3.org/2000/svg">
<path fill-rule="evenodd" clip-rule="evenodd" d="M7.27499 6.48055L7.27884 6.47092C7.27884 6.47092 7.27394 6.46557 7.26799 6.45951C7.26204 6.45345 7.24944 6.45702 7.24944 6.45702L7.23509 6.44043H7.20989H7.18469L7.17034 6.45702C7.17034 6.45702 7.15774 6.45345 7.15179 6.45951C7.14584 6.46557 7.14094 6.47092 7.14094 6.47092L7.14479 6.48055L7.13989 6.49481C7.13989 6.49481 7.1543 6.55043 7.15599 6.55722C7.15932 6.57059 7.16159 6.57576 7.17104 6.58253C7.18049 6.58931 7.19764 6.60108 7.20044 6.60286C7.20324 6.60464 7.20674 6.60768 7.20989 6.60768C7.21304 6.60768 7.21654 6.60464 7.21934 6.60286C7.22214 6.60108 7.23929 6.58931 7.24874 6.58253C7.25819 6.57576 7.26047 6.57059 7.26379 6.55722C7.26548 6.55043 7.27989 6.49481 7.27989 6.49481L7.27499 6.48055Z" fill="url(#paint0_linear_292_666)"/>
<path fill-rule="evenodd" clip-rule="evenodd" d="M7.20999 6.54441C7.21095 6.54441 7.21709 6.54662 7.22203 6.54922C7.22696 6.55182 7.23053 6.55366 7.23168 6.55439C7.23282 6.55512 7.23212 6.55649 7.23108 6.55724C7.23004 6.55799 7.21605 6.56903 7.2147 6.57024C7.21334 6.57146 7.21134 6.57348 7.20999 6.57348C7.20863 6.57348 7.20664 6.57146 7.20528 6.57024C7.20392 6.56903 7.18994 6.55799 7.1889 6.55724C7.18785 6.55649 7.18716 6.55512 7.1883 6.55439C7.18944 6.55366 7.19302 6.55182 7.19795 6.54922C7.20288 6.54662 7.20903 6.54441 7.20999 6.54441ZM7.21006 6.46582C7.21053 6.46583 7.21319 6.46596 7.21699 6.46726C7.22119 6.46868 7.22574 6.47046 7.22784 6.47046C7.22994 6.47046 7.24551 6.46743 7.24551 6.46743C7.24551 6.46743 7.26397 6.49017 7.26397 6.49502C7.26397 6.49988 7.26165 6.50117 7.25931 6.50369C7.25698 6.50622 7.24678 6.51725 7.24548 6.51866C7.24417 6.52008 7.24144 6.52223 7.24304 6.52609C7.24465 6.52996 7.24701 6.53488 7.24438 6.53987C7.24175 6.54486 7.23724 6.54819 7.23436 6.54764C7.23147 6.54709 7.22469 6.54348 7.22219 6.54183C7.2197 6.54018 7.2118 6.53354 7.2118 6.531C7.2118 6.52845 7.21997 6.52389 7.22148 6.52286C7.22299 6.52182 7.22987 6.51781 7.23001 6.51623C7.23015 6.51466 7.2301 6.5142 7.22807 6.5103C7.22604 6.50641 7.22238 6.50122 7.22299 6.49777C7.22359 6.49431 7.2295 6.49251 7.23371 6.49089C7.23792 6.48927 7.24603 6.48621 7.24704 6.48574C7.24805 6.48526 7.24779 6.48481 7.24472 6.48451C7.24165 6.48422 7.23295 6.48304 7.22902 6.48415C7.2251 6.48527 7.21839 6.48697 7.21785 6.48786C7.2173 6.48876 7.21682 6.48879 7.21738 6.4919C7.21794 6.495 7.22081 6.50988 7.22109 6.51253C7.22137 6.51517 7.22191 6.51692 7.21912 6.51757C7.21632 6.51822 7.21161 6.51936 7.20999 6.51936C7.20837 6.51936 7.20366 6.51822 7.20086 6.51757C7.19806 6.51692 7.19861 6.51517 7.19889 6.51253C7.19917 6.50988 7.20204 6.495 7.20259 6.4919C7.20315 6.48879 7.20267 6.48876 7.20213 6.48786C7.20159 6.48697 7.19488 6.48527 7.19096 6.48415C7.18703 6.48304 7.17832 6.48422 7.17526 6.48451C7.17219 6.48481 7.17193 6.48526 7.17294 6.48574C7.17395 6.48621 7.18206 6.48927 7.18627 6.49089C7.19048 6.49251 7.19638 6.49431 7.19699 6.49777C7.1976 6.50122 7.19394 6.50641 7.19191 6.5103C7.18988 6.5142 7.18982 6.51466 7.18997 6.51623C7.19011 6.51781 7.19699 6.52182 7.1985 6.52286C7.20001 6.52389 7.20818 6.52845 7.20818 6.531C7.20818 6.53354 7.20028 6.54018 7.19778 6.54183C7.19529 6.54348 7.18851 6.54709 7.18562 6.54764C7.18273 6.54819 7.17823 6.54486 7.1756 6.53987C7.17297 6.53488 7.17533 6.52996 7.17693 6.52609C7.17854 6.52223 7.17581 6.52008 7.1745 6.51866C7.17319 6.51725 7.163 6.50622 7.16066 6.50369C7.15833 6.50117 7.15601 6.49988 7.15601 6.49502C7.15601 6.49017 7.17446 6.46743 7.17446 6.46743C7.17446 6.46743 7.19004 6.47046 7.19214 6.47046C7.19424 6.47046 7.19879 6.46868 7.20299 6.46726C7.20679 6.46596 7.20944 6.46583 7.20991 6.46582H7.21006Z" fill="white"/>
<path d="M7.24951 6.45702L7.23516 6.44043H7.20996H7.18476L7.17041 6.45702C7.17041 6.45702 7.15781 6.45345 7.15186 6.45951C7.15186 6.45951 7.16866 6.45797 7.17443 6.46754C7.17443 6.46754 7.19001 6.47057 7.19211 6.47057C7.19421 6.47057 7.19876 6.46878 7.20296 6.46736C7.20716 6.46593 7.20996 6.46592 7.20996 6.46592C7.20996 6.46592 7.21276 6.46593 7.21696 6.46736C7.22116 6.46878 7.22571 6.47057 7.22781 6.47057C7.22991 6.47057 7.24548 6.46754 7.24548 6.46754C7.25126 6.45797 7.26806 6.45951 7.26806 6.45951C7.26211 6.45345 7.24951 6.45702 7.24951 6.45702Z" fill="url(#paint1_linear_292_666)"/>
<mask id="mask0_292_666" style="mask-type:luminance" maskUnits="userSpaceOnUse" x="2" y="2" width="16" height="17">
<path d="M17.8149 9.09981H10.6399V12.0748H14.7699C14.3849 13.9648 12.7749 15.0498 10.6399 15.0498C8.11994 15.0498 6.08994 13.0198 6.08994 10.4998C6.08994 7.97981 8.11994 5.9498 10.6399 5.9498C11.7249 5.9498 12.7049 6.3348 13.4749 6.9648L15.7149 4.7248C14.3499 3.5348 12.5999 2.7998 10.6399 2.7998C6.36994 2.7998 2.93994 6.2298 2.93994 10.4998C2.93994 14.7698 6.36994 18.1998 10.6399 18.1998C14.4899 18.1998 17.9899 15.3998 17.9899 10.4998C17.9899 10.0448 17.9199 9.55481 17.8149 9.09981Z" fill="white"/>
</mask>
<g mask="url(#mask0_292_666)">
<path d="M2.23999 15.0502V5.9502L8.18999 10.5002L2.23999 15.0502Z" fill="#FBBC05"/>
</g>
<mask id="mask1_292_666" style="mask-type:luminance" maskUnits="userSpaceOnUse" x="2" y="2" width="16" height="17">
<path d="M17.8149 9.09981H10.6399V12.0748H14.7699C14.3849 13.9648 12.7749 15.0498 10.6399 15.0498C8.11994 15.0498 6.08994 13.0198 6.08994 10.4998C6.08994 7.97981 8.11994 5.9498 10.6399 5.9498C11.7249 5.9498 12.7049 6.3348 13.4749 6.9648L15.7149 4.7248C14.3499 3.5348 12.5999 2.7998 10.6399 2.7998C6.36994 2.7998 2.93994 6.2298 2.93994 10.4998C2.93994 14.7698 6.36994 18.1998 10.6399 18.1998C14.4899 18.1998 17.9899 15.3998 17.9899 10.4998C17.9899 10.0448 17.9199 9.55481 17.8149 9.09981Z" fill="white"/>
</mask>
<g mask="url(#mask1_292_666)">
<path d="M2.23999 5.94961L8.18999 10.4996L10.64 8.36461L19.04 6.99961V2.09961H2.23999V5.94961Z" fill="#EA4335"/>
</g>
<mask id="mask2_292_666" style="mask-type:luminance" maskUnits="userSpaceOnUse" x="2" y="2" width="16" height="17">
<path d="M17.8149 9.09981H10.6399V12.0748H14.7699C14.3849 13.9648 12.7749 15.0498 10.6399 15.0498C8.11994 15.0498 6.08994 13.0198 6.08994 10.4998C6.08994 7.97981 8.11994 5.9498 10.6399 5.9498C11.7249 5.9498 12.7049 6.3348 13.4749 6.9648L15.7149 4.7248C14.3499 3.5348 12.5999 2.7998 10.6399 2.7998C6.36994 2.7998 2.93994 6.2298 2.93994 10.4998C2.93994 14.7698 6.36994 18.1998 10.6399 18.1998C14.4899 18.1998 17.9899 15.3998 17.9899 10.4998C17.9899 10.0448 17.9199 9.55481 17.8149 9.09981Z" fill="white"/>
</mask>
<g mask="url(#mask2_292_666)">
<path d="M2.23999 15.0496L12.74 6.99961L15.505 7.34961L19.04 2.09961V18.8996H2.23999V15.0496Z" fill="#34A853"/>
</g>
<mask id="mask3_292_666" style="mask-type:luminance" maskUnits="userSpaceOnUse" x="2" y="2" width="16" height="17">
<path d="M17.8149 9.09981H10.6399V12.0748H14.7699C14.3849 13.9648 12.7749 15.0498 10.6399 15.0498C8.11994 15.0498 6.08994 13.0198 6.08994 10.4998C6.08994 7.97981 8.11994 5.9498 10.6399 5.9498C11.7249 5.9498 12.7049 6.3348 13.4749 6.9648L15.7149 4.7248C14.3499 3.5348 12.5999 2.7998 10.6399 2.7998C6.36994 2.7998 2.93994 6.2298 2.93994 10.4998C2.93994 14.7698 6.36994 18.1998 10.6399 18.1998C14.4899 18.1998 17.9899 15.3998 17.9899 10.4998C17.9899 10.0448 17.9199 9.55481 17.8149 9.09981Z" fill="white"/>
</mask>
<g mask="url(#mask3_292_666)">
<path d="M19.04 18.9002L8.19004 10.5002L6.79004 9.4502L19.04 5.9502V18.9002Z" fill="#4285F4"/>
</g>
<defs>
<linearGradient id="paint0_linear_292_666" x1="7.13989" y1="14.9209" x2="21.1399" y2="14.9209" gradientUnits="userSpaceOnUse">
<stop stop-color="#FF5500"/>
<stop offset="0.409877" stop-color="#FF5500"/>
<stop offset="0.581981" stop-color="#FF2000"/>
<stop offset="1" stop-color="#FF2000"/>
</linearGradient>
<linearGradient id="paint1_linear_292_666" x1="7.4015" y1="7.96852" x2="18.7719" y2="7.96852" gradientUnits="userSpaceOnUse">
<stop stop-color="#FF452A"/>
<stop offset="1" stop-color="#FF2000"/>
</linearGradient>
</defs>
</svg>
