<svg width="19" height="13" viewBox="0 0 19 13" fill="none" xmlns="http://www.w3.org/2000/svg">
<path d="M1.38688 5.52134C7.06626 3.63862 14.4153 1.34323 15.4301 1.02546C18.0911 0.193997 18.9076 0.353187 18.5006 2.19489C18.2081 3.51861 17.3647 7.90062 16.6919 10.6283C16.293 12.2459 15.3976 12.4375 13.9904 11.7377C13.3136 11.401 9.89701 9.69824 9.15519 9.29843C8.47838 8.93413 7.54482 8.49575 8.71563 7.63245C9.13244 7.32509 11.8633 5.35971 13.9912 3.83026C14.2699 3.62944 13.9197 3.29942 13.5979 3.46045C10.7298 4.89377 6.75344 6.88303 6.24726 7.14202C5.48269 7.53326 4.74819 7.71265 3.43032 7.42734C2.43419 7.21182 1.46163 6.95467 1.08301 6.8567C-0.375431 6.47955 -0.0293058 5.99095 1.38688 5.52134Z" fill="white"/>
</svg>
