<svg width="39" height="39" viewBox="0 0 39 39" fill="none" xmlns="http://www.w3.org/2000/svg">
<rect width="39" height="39" fill="white"/>
<g filter="url(#filter0_i_170_532)">
<path d="M35.75 19.5C35.75 28.4741 28.4741 35.75 19.5 35.75C10.5259 35.75 3.25 28.4741 3.25 19.5C3.25 10.5259 10.5259 3.25 19.5 3.25C28.4741 3.25 35.75 10.5259 35.75 19.5Z" fill="black"/>
</g>
<path d="M9.38688 19.27C15.0663 16.7716 22.4153 13.7255 23.4301 13.3039C26.0911 12.2005 26.9076 12.4117 26.5006 14.8557C26.2081 16.6124 25.3647 22.4274 24.6919 26.0471C24.293 28.1937 23.3976 28.448 21.9904 27.5194C21.3136 27.0725 17.897 24.8129 17.1552 24.2824C16.4784 23.7989 15.5448 23.2172 16.7156 22.0715C17.1324 21.6637 19.8633 19.0555 21.9912 17.0259C22.2699 16.7594 21.9197 16.3215 21.5979 16.5352C18.7298 18.4372 14.7534 21.077 14.2473 21.4207C13.4827 21.9399 12.7482 22.178 11.4303 21.7994C10.4342 21.5134 9.46163 21.1721 9.08301 21.0421C7.62457 20.5416 7.97069 19.8932 9.38688 19.27Z" fill="white"/>
<defs>
<filter id="filter0_i_170_532" x="3.25" y="3.25" width="32.5" height="36.5" filterUnits="userSpaceOnUse" color-interpolation-filters="sRGB">
<feFlood flood-opacity="0" result="BackgroundImageFix"/>
<feBlend mode="normal" in="SourceGraphic" in2="BackgroundImageFix" result="shape"/>
<feColorMatrix in="SourceAlpha" type="matrix" values="0 0 0 0 0 0 0 0 0 0 0 0 0 0 0 0 0 0 127 0" result="hardAlpha"/>
<feOffset dy="4"/>
<feGaussianBlur stdDeviation="7.5"/>
<feComposite in2="hardAlpha" operator="arithmetic" k2="-1" k3="1"/>
<feColorMatrix type="matrix" values="0 0 0 0 0 0 0 0 0 0 0 0 0 0 0 0 0 0 0.2 0"/>
<feBlend mode="normal" in2="shape" result="effect1_innerShadow_170_532"/>
</filter>
</defs>
</svg>
