<svg width="38" height="39" viewBox="0 0 38 39" fill="none" xmlns="http://www.w3.org/2000/svg">
<g filter="url(#filter0_i_170_535)">
<path d="M19.0001 3.25C10.2917 3.25 3.16675 10.5625 3.16675 19.5C3.16675 28.4375 10.2917 35.75 19.0001 35.75C27.7084 35.75 34.8334 28.4375 34.8334 19.5C34.8334 10.5625 27.7084 3.25 19.0001 3.25Z" fill="black"/>
</g>
<path d="M19.95 26.9749C12.825 26.9749 8.78748 22.0187 8.62915 13.6499H12.1917C12.2708 19.7437 14.9625 22.3437 17.0208 22.8312V13.6499H20.3458V18.9312C22.4042 18.6874 24.5417 16.3312 25.2542 13.6499H28.5791C28.025 16.8999 25.65 19.3374 23.9875 20.3124C25.65 21.1249 28.3417 23.2374 29.2917 26.9749H25.5708C24.7792 24.4562 22.8 22.5062 20.1875 22.1812V26.9749H19.95Z" fill="white"/>
<defs>
<filter id="filter0_i_170_535" x="3.16675" y="3.25" width="31.6667" height="36.5" filterUnits="userSpaceOnUse" color-interpolation-filters="sRGB">
<feFlood flood-opacity="0" result="BackgroundImageFix"/>
<feBlend mode="normal" in="SourceGraphic" in2="BackgroundImageFix" result="shape"/>
<feColorMatrix in="SourceAlpha" type="matrix" values="0 0 0 0 0 0 0 0 0 0 0 0 0 0 0 0 0 0 127 0" result="hardAlpha"/>
<feOffset dy="4"/>
<feGaussianBlur stdDeviation="7.5"/>
<feComposite in2="hardAlpha" operator="arithmetic" k2="-1" k3="1"/>
<feColorMatrix type="matrix" values="0 0 0 0 0 0 0 0 0 0 0 0 0 0 0 0 0 0 0.2 0"/>
<feBlend mode="normal" in2="shape" result="effect1_innerShadow_170_535"/>
</filter>
</defs>
</svg>
